<?xml version="1.0" encoding="UTF-8" standalone="no"?>
<!-- Created with Inkscape (http://www.inkscape.org/) -->

<svg
   xmlns:dc="http://purl.org/dc/elements/1.1/"
   xmlns:cc="http://creativecommons.org/ns#"
   xmlns:rdf="http://www.w3.org/1999/02/22-rdf-syntax-ns#"
   xmlns:svg="http://www.w3.org/2000/svg"
   xmlns="http://www.w3.org/2000/svg"
   xmlns:sodipodi="http://sodipodi.sourceforge.net/DTD/sodipodi-0.dtd"
   xmlns:inkscape="http://www.inkscape.org/namespaces/inkscape"
   width="64px"
   height="64px"
   id="svg2985"
   version="1.1"
   inkscape:version="0.48.4 r9939"
   sodipodi:docname="Nuevo documento 2">
  <defs
     id="defs2987" />
  <sodipodi:namedview
     id="base"
     pagecolor="#ffffff"
     bordercolor="#666666"
     borderopacity="1.0"
     inkscape:pageopacity="0.0"
     inkscape:pageshadow="2"
     inkscape:zoom="7.7781746"
     inkscape:cx="41.46283"
     inkscape:cy="34.076608"
     inkscape:current-layer="g3008"
     showgrid="false"
     inkscape:document-units="px"
     inkscape:grid-bbox="true"
     showguides="false"
     inkscape:window-width="1366"
     inkscape:window-height="768"
     inkscape:window-x="0"
     inkscape:window-y="0"
     inkscape:window-maximized="1">
    <inkscape:grid
       type="xygrid"
       id="grid2993"
       empspacing="5"
       visible="true"
       enabled="true"
       snapvisiblegridlinesonly="true" />
  </sodipodi:namedview>
  <metadata
     id="metadata2990">
    <rdf:RDF>
      <cc:Work
         rdf:about="">
        <dc:format>image/svg+xml</dc:format>
        <dc:type
           rdf:resource="http://purl.org/dc/dcmitype/StillImage" />
        <dc:title></dc:title>
      </cc:Work>
    </rdf:RDF>
  </metadata>
  <g
     inkscape:groupmode="layer"
     id="layer2"
     inkscape:label="azul oscuro"
     style="display:inline">
    <path
       id="path3014"
       style="font-size:63.72728729px;font-style:normal;font-variant:normal;font-weight:normal;font-stretch:normal;line-height:125%;letter-spacing:0px;word-spacing:0px;fill:#007c86;fill-opacity:1;stroke:none;display:inline;font-family:NanumGothic;-inkscape-font-specification:NanumGothic"
       d="m 35.223286,57.681585 c -4e-6,-0.384005 -4e-6,-0.682672 0,-0.896 -4e-6,-0.213338 0.02115,-0.405338 0.06346,-0.576 0.08461,-0.17067 0.190363,-0.341337 0.317279,-0.512 0.169211,-0.17067 0.38073,-0.384003 0.634557,-0.64 1.649843,-1.664001 3.363146,-3.413333 5.139915,-5.247999 1.819052,-1.834663 3.638115,-3.669329 5.457193,-5.504001 1.819047,-1.877324 3.616958,-3.733322 5.393737,-5.568 1.819042,-1.834652 3.553497,-3.583984 5.203371,-5.248001 0.380708,-0.426648 0.571075,-0.70398 0.571101,-0.831999 -2.6e-5,-0.170648 -0.232697,-0.490648 -0.698013,-0.960001 l -20.940396,-21.376 c -0.296131,-0.298625 -0.528802,-0.5332918 -0.698013,-0.7040008 -0.126915,-0.170624 -0.232674,-0.341291 -0.317278,-0.512 -0.04231,-0.170624 -0.08461,-0.383957 -0.126912,-0.64 -4e-6,-0.255956 -4e-6,-0.597289 0,-1.024 l 0,-2.496 c -4e-6,-0.981286 0.0423,-1.4932852 0.126912,-1.5360003 0.126907,-0.042619 0.507642,0.2773816 1.142203,0.9600003 L 60.92286,29.329585 c 0.253794,0.256022 0.444161,0.469355 0.571102,0.639999 0.169185,0.170689 0.274944,0.341356 0.317278,0.512001 0.08458,0.128021 0.126882,0.298688 0.126912,0.511999 0.04227,0.213355 0.06343,0.490687 0.06346,0.832001 l 0,1.663999 c -3e-5,0.341352 -0.02118,0.618685 -0.06346,0.832001 -3e-5,0.213351 -0.04234,0.40535 -0.126912,0.576 -0.04233,0.128017 -0.148093,0.27735 -0.317278,0.448 -0.126941,0.170682 -0.317308,0.384015 -0.571102,0.639999 L 36.302034,60.945585 c -0.549954,0.554657 -0.867232,0.810657 -0.951836,0.768 -0.08461,-0.04267 -0.126916,-0.469342 -0.126912,-1.28 l 0,-2.752"
       inkscape:connector-curvature="0" />
  </g>
  <g
     style="display:inline"
     inkscape:groupmode="layer"
     inkscape:label="azul claro"
     id="g3825">
    <g
       id="g3827"
       style="font-size:63.72728729px;font-style:normal;font-variant:normal;font-weight:normal;font-stretch:normal;line-height:125%;letter-spacing:0px;word-spacing:0px;fill:#000000;fill-opacity:1;stroke:none;font-family:NanumGothic;-inkscape-font-specification:NanumGothic"
       transform="scale(0.99573885,1.0042794)">
      <path
         sodipodi:nodetypes="cccccccccccccccccccccc"
         inkscape:connector-curvature="0"
         id="path3829"
         style="fill:#fbc527;fill-opacity:1;font-family:NanumGothic;-inkscape-font-specification:NanumGothic"
         d="m 28.830259,60.059079 c -3.2e-5,0.807203 -0.04252,1.232051 -0.127455,1.274545 -0.085,0.04248 -0.403637,-0.212433 -0.955909,-0.764727 L 3.1481622,35.842709 C 2.8932471,35.587816 2.6808231,35.375392 2.5108893,35.205437 2.3834294,35.035514 2.2772173,34.886817 2.1922528,34.759346 2.1497629,34.589423 2.1072781,34.398242 2.0647983,34.1858 c -5.1e-6,-0.212407 -5.1e-6,-0.488558 0,-0.828455 l 0,-1.656909 c -5.1e-6,-0.339859 -5.1e-6,-0.61601 0,-0.828455 0.04248,-0.212403 0.084965,-0.382342 0.1274545,-0.509818 0.084965,-0.169918 0.1911766,-0.339857 0.3186365,-0.509819 0.1699338,-0.169917 0.3823578,-0.382341 0.6372729,-0.637272 0.2316479,0.397814 2.067246,2.520145 2.8677279,3.313819 0.056339,0.114582 0.2124151,0.403624 0.6372729,0.828454 1.6568981,1.656926 3.377533,3.398804 5.16191,5.225638 1.784348,1.784375 3.589952,3.611222 5.41682,5.480547 1.826827,1.826854 3.632431,3.653701 5.416819,5.480546 1.826822,1.826849 3.568699,3.568727 5.225638,5.225638 0.467302,0.509815 0.743453,0.870935 0.828454,1.083364 0.08494,0.21242 0.127423,0.700995 0.127455,1.465727 l 0,2.740274" />
      <path
         sodipodi:nodetypes="ccccccsscccccccccccc"
         inkscape:connector-curvature="0"
         id="path3831"
         style="fill:#64d6b2;fill-opacity:1;font-family:NanumGothic;-inkscape-font-specification:NanumGothic"
         d="m 58.264303,32.528891 c -2.6e-5,-0.169921 -0.233693,-0.488557 -0.701,-0.95591 L 36.533295,10.288067 C 36.235897,9.990715 36.00223,9.7570485 35.832295,9.5870671 35.704837,9.4171699 35.598625,9.2472307 35.513659,9.0772488 35.47117,8.9073522 35.428685,8.6949281 35.386204,8.4399759 c -4e-6,-0.2548656 -4e-6,-0.5947441 0,-1.0196366 l 0,-2.4853642 c -4e-6,-0.977104 0.04248,-1.4869218 0.127455,-1.5294549 0.12745,-0.042437 0.509814,0.2761996 1.147091,0.9559093 L 61.195755,29.215072 c 0.25488,0.254931 0.446062,0.467355 0.573546,0.637272 0.169909,0.169962 0.276121,0.339901 0.318636,0.509819 0.08494,0.127476 0.127425,0.297415 0.127455,0.509818 0.04245,0.212445 0.0637,0.488596 0.06373,0.828455 l 0,1.656909 c -3e-5,0.339897 -0.02127,0.616048 -0.06373,0.828455 -3e-5,0.212442 -0.04252,0.403623 -0.127455,0.573546 -0.04251,0.127471 -0.148727,0.276168 -0.318636,0.446091 -0.127484,0.169955 -0.318666,0.382379 -0.573546,0.637272" />
    </g>
  </g>
  <g
     inkscape:groupmode="layer"
     inkscape:label="naranja oscuro"
     id="g3008"
     style="display:inline">
    <g
       id="g3010"
       style="font-size:63.72728729px;font-style:normal;font-variant:normal;font-weight:normal;font-stretch:normal;line-height:125%;letter-spacing:0px;word-spacing:0px;fill:#000000;fill-opacity:1;stroke:none;font-family:NanumGothic;-inkscape-font-specification:NanumGothic"
       transform="scale(0.99573885,1.0042794)">
      <path
         id="path3012"
         style="fill:#fd8300;fill-opacity:1;font-family:NanumGothic;-inkscape-font-specification:NanumGothic"
         d="m 2.0647983,31.700436 c -5.1e-6,-0.339859 -5.1e-6,-0.61601 0,-0.828455 0.04248,-0.212403 0.084965,-0.382342 0.1274545,-0.509818 0.084965,-0.169918 0.1911766,-0.339857 0.3186365,-0.509819 0.1699338,-0.169917 0.3823578,-0.382341 0.6372729,-0.637272 L 27.491986,4.4888841 c 0.679726,-0.6797098 1.06209,-0.9983459 1.147091,-0.9559093 0.127423,0.042533 0.19115,0.5523508 0.191182,1.5294549 l 0,2.4216369 c -3.2e-5,0.4248924 -0.02127,0.7647709 -0.06373,1.0196366 -3.2e-5,0.2549521 -0.04252,0.4673762 -0.127455,0.6372729 -0.04252,0.1699818 -0.148728,0.3399211 -0.318636,0.5098183 -0.127486,0.1699813 -0.33991,0.4036476 -0.637273,0.7010006 L 6.7806175,31.572981 c -0.4673427,0.467353 -0.7222516,0.785989 -0.7647274,0.95591"
         inkscape:connector-curvature="0"
         sodipodi:nodetypes="ccccccccccccccc" />
    </g>
  </g>
  <g
     id="g3833"
     inkscape:label="naranja claro"
     inkscape:groupmode="layer"
     style="display:inline">
    <g
       transform="scale(0.99573885,1.0042794)"
       style="font-size:63.72728729px;font-style:normal;font-variant:normal;font-weight:normal;font-stretch:normal;line-height:125%;letter-spacing:0px;word-spacing:0px;fill:#000000;fill-opacity:1;stroke:none;font-family:NanumGothic;-inkscape-font-specification:NanumGothic"
       id="g3835">
      <path
         d="m 28.830259,60.059079 c -3.2e-5,0.807203 -0.04252,1.232051 -0.127455,1.274545 -0.085,0.04248 -0.403637,-0.212433 -0.955909,-0.764727 L 3.1481622,35.842709 C 2.8932471,35.587816 2.6808231,35.375392 2.5108893,35.205437 2.3834294,35.035514 2.2772173,34.886817 2.1922528,34.759346 2.1497629,34.589423 2.1072781,34.398242 2.0647983,34.1858 c -5.1e-6,-0.212407 -5.1e-6,-0.488558 0,-0.828455 l 0,-1.656909 c -5.1e-6,-0.339859 -5.1e-6,-0.61601 0,-0.828455 0.04248,-0.212403 0.084965,-0.382342 0.1274545,-0.509818 0.084965,-0.169918 0.1911766,-0.339857 0.3186365,-0.509819 0.1699338,-0.169917 0.3823578,-0.382341 0.6372729,-0.637272 0.2316479,0.397814 2.067246,2.520145 2.8677279,3.313819 0.056339,0.114582 0.2124151,0.403624 0.6372729,0.828454 1.6568981,1.656926 3.377533,3.398804 5.16191,5.225638 1.784348,1.784375 3.589952,3.611222 5.41682,5.480547 1.826827,1.826854 3.632431,3.653701 5.416819,5.480546 1.826822,1.826849 3.568699,3.568727 5.225638,5.225638 0.467302,0.509815 0.743453,0.870935 0.828454,1.083364 0.08494,0.21242 0.127423,0.700995 0.127455,1.465727 l 0,2.740274"
         style="fill:#fbc527;fill-opacity:1;font-family:NanumGothic;-inkscape-font-specification:NanumGothic"
         id="path3837"
         inkscape:connector-curvature="0"
         sodipodi:nodetypes="cccccccccccccccccccccc" />
    </g>
  </g>
</svg>
